<svg xmlns="http://www.w3.org/2000/svg" width="124" height="124" viewBox="0 0 124 124" fill="none">
  <path d="M 60.235 1.284 C 61.287 0.518 62.713 0.518 63.765 1.284 L 70.505 6.186 C 71.252 6.73 72.209 6.898 73.098 6.643 L 81.108 4.342 C 82.358 3.982 83.698 4.47 84.424 5.549 L 89.081 12.461 C 89.598 13.227 90.439 13.713 91.362 13.777 L 99.676 14.354 C 100.974 14.444 102.066 15.36 102.38 16.623 L 104.392 24.711 C 104.615 25.608 105.239 26.352 106.084 26.728 L 113.7 30.114 C 114.888 30.642 115.601 31.876 115.464 33.17 L 114.589 41.458 C 114.492 42.378 114.824 43.291 115.489 43.933 L 121.488 49.719 C 122.424 50.622 122.671 52.026 122.1 53.195 L 118.443 60.683 C 118.037 61.514 118.037 62.486 118.443 63.317 L 122.1 70.805 C 122.671 71.974 122.424 73.378 121.488 74.281 L 115.489 80.067 C 114.824 80.709 114.492 81.622 114.589 82.542 L 115.464 90.83 C 115.601 92.124 114.888 93.358 113.7 93.886 L 106.084 97.272 C 105.239 97.648 104.615 98.392 104.392 99.289 L 102.38 107.377 C 102.066 108.64 100.974 109.556 99.676 109.646 L 91.362 110.223 C 90.439 110.287 89.598 110.773 89.081 111.539 L 84.424 118.451 C 83.698 119.53 82.358 120.018 81.108 119.658 L 73.098 117.357 C 72.209 117.102 71.252 117.27 70.505 117.814 L 63.765 122.716 C 62.713 123.482 61.287 123.482 60.235 122.716 L 53.495 117.814 C 52.748 117.27 51.791 117.102 50.902 117.357 L 42.892 119.658 C 41.642 120.018 40.302 119.53 39.576 118.451 L 34.919 111.539 C 34.402 110.773 33.561 110.287 32.638 110.223 L 24.324 109.646 C 23.026 109.556 21.934 108.64 21.62 107.377 L 19.608 99.289 C 19.385 98.392 18.761 97.648 17.916 97.272 L 10.3 93.886 C 9.112 93.358 8.399 92.124 8.536 90.83 L 9.411 82.542 C 9.508 81.622 9.176 80.709 8.511 80.067 L 2.512 74.281 C 1.576 73.378 1.329 71.974 1.9 70.805 L 5.557 63.317 C 5.963 62.486 5.963 61.514 5.557 60.683 L 1.9 53.195 C 1.329 52.026 1.576 50.622 2.512 49.719 L 8.511 43.933 C 9.176 43.291 9.508 42.378 9.411 41.458 L 8.536 33.17 C 8.399 31.876 9.112 30.642 10.3 30.114 L 17.916 26.728 C 18.761 26.352 19.385 25.608 19.608 24.711 L 21.62 16.623 C 21.934 15.36 23.026 14.444 24.324 14.354 L 32.638 13.777 C 33.561 13.713 34.402 13.227 34.919 12.461 L 39.576 5.549 C 40.302 4.47 41.642 3.982 42.892 4.342 L 50.902 6.643 C 51.791 6.898 52.748 6.73 53.495 6.186 L 60.235 1.284 Z" fill="currentColor" fill-rule="nonzero"></path>
</svg>